<svg width="50" height="50" fill="none" xmlns="http://www.w3.org/2000/svg"><circle cx="25" cy="25" r="25" fill="#EEE"/><path d="M29.361 23.75h-2.647V20h4.857c.322 0 .631-.132.86-.366a1.274 1.274 0 0 0-.001-1.768 1.197 1.197 0 0 0-.859-.366h-4.857v-1.25c0-.332-.128-.65-.355-.884A1.197 1.197 0 0 0 25.5 15c-.322 0-.63.132-.859.366a1.269 1.269 0 0 0-.355.884v1.25h-2.599a4.417 4.417 0 0 0-3.218 1.194A4.68 4.68 0 0 0 17 21.875a4.68 4.68 0 0 0 1.469 3.18 4.417 4.417 0 0 0 3.218 1.195h2.599V30h-4.857c-.322 0-.631.132-.86.366a1.269 1.269 0 0 0-.355.884c0 .331.128.65.356.884a1.2 1.2 0 0 0 .859.366h4.857v1.25c0 .331.128.65.355.884A1.2 1.2 0 0 0 25.5 35c.322 0 .63-.132.859-.366.227-.234.355-.553.355-.884V32.5h2.647a4.382 4.382 0 0 0 3.198-1.201A4.645 4.645 0 0 0 34 28.125a4.645 4.645 0 0 0-1.441-3.174 4.382 4.382 0 0 0-3.198-1.201Zm-7.674 0a2.06 2.06 0 0 1-1.494-.472 2.179 2.179 0 0 1-.764-1.403c.07-.552.343-1.054.764-1.403A2.06 2.06 0 0 1 21.687 20h2.599v3.75h-2.599ZM29.361 30h-2.647v-3.75h2.647a2.037 2.037 0 0 1 1.47.483c.411.349.676.847.74 1.392a2.155 2.155 0 0 1-.74 1.392 2.037 2.037 0 0 1-1.47.483Z" fill="#A0AFBC"/></svg>