<svg width="50" height="50" fill="none" xmlns="http://www.w3.org/2000/svg"><circle cx="25" cy="25" r="25" fill="#EEE"/><g fill="#A0AFBC" stroke="#A0AFBC" stroke-width=".5"><path d="M26.649 15.7a3.98 3.98 0 0 1 3.977 3.978.814.814 0 0 1-1.627 0 2.35 2.35 0 0 0-2.35-2.35h-7.748a2.372 2.372 0 0 0-2.372 2.372v10.751a2.372 2.372 0 0 0 2.372 2.372h7.748a2.35 2.35 0 0 0 2.35-2.35.814.814 0 1 1 1.627 0 3.977 3.977 0 0 1-3.977 3.977h-7.748a4 4 0 0 1-4-3.999v-10.75a4 4 0 0 1 4-4h7.748Zm8.695 13.667a.81.81 0 0 1-1.157.09.814.814 0 0 1-.07-1.158l2.983-3.424-2.974-3.3a.813.813 0 0 1 0-1.09l.06-.06a.811.811 0 0 1 1.149.06l3.456 3.837A.813.813 0 0 1 38.8 25.4l-3.456 3.966Z"/><path d="M22.493 25.935a.813.813 0 1 1 0-1.628h15.409a.814.814 0 1 1 0 1.628h-15.41Z"/></g></svg>