<svg width="50" height="50" fill="none" xmlns="http://www.w3.org/2000/svg"><g fill="#11A560"><circle opacity=".1" cx="25" cy="25" r="25"/><g stroke="#11A560" stroke-width=".5"><path d="M29.627 14a4.275 4.275 0 0 1 4.274 4.275.874.874 0 1 1-1.749 0 2.527 2.527 0 0 0-2.526-2.526H17.3a2.55 2.55 0 0 0-2.55 2.55v13.555a2.55 2.55 0 0 0 2.55 2.55h12.328a2.526 2.526 0 0 0 2.525-2.526.874.874 0 0 1 1.75 0 4.275 4.275 0 0 1-4.276 4.274H17.3a4.299 4.299 0 0 1-4.3-4.298V18.299A4.298 4.298 0 0 1 17.299 14h12.328Z"/><path d="M24.439 20.238a.875.875 0 1 1 1.319 1.149l-3.207 3.68 3.197 3.547a.875.875 0 0 1 0 1.171l-.064.064a.873.873 0 0 1-1.235-.064l-3.715-4.123a.875.875 0 0 1-.009-1.16l3.714-4.264Z"/><path d="M37.027 24.132a.875.875 0 0 1 0 1.749H21.69a.874.874 0 1 1 0-1.75h15.337Z"/></g></g></svg>